<svg id="a97a3f4b-cc7d-4519-9541-d6267eec14d5" data-name="Layer 1" xmlns="http://www.w3.org/2000/svg" width="150" height="35.12" viewBox="0 0 150 35.12"><defs><style>.e0a95550-aba0-4f5b-8367-cb449ef55faf{fill:#3b82f6;}</style></defs><path class="e0a95550-aba0-4f5b-8367-cb449ef55faf" d="M19,4.45a2.44,2.44,0,0,0,.82.56,2.65,2.65,0,0,0,1,.2,2.6,2.6,0,0,0,1-.2,2.48,2.48,0,0,0,.83-.56,2.59,2.59,0,0,0,.56-.83,2.68,2.68,0,0,0,0-2,2.44,2.44,0,0,0-.56-.82A2.82,2.82,0,0,0,21.8.21a2.44,2.44,0,0,0-1-.21,2.48,2.48,0,0,0-1,.21A2.77,2.77,0,0,0,19,.77a2.57,2.57,0,0,0-.55.82,2.68,2.68,0,0,0,0,2A2.73,2.73,0,0,0,19,4.45Z"/><path class="e0a95550-aba0-4f5b-8367-cb449ef55faf" d="M56.9,7.29a1.74,1.74,0,0,0-.62-.53,2.32,2.32,0,0,0-.81-.24c-.3,0-.65,0-1,0a3,3,0,0,0-1.81.65A5.88,5.88,0,0,0,51,9a10.27,10.27,0,0,0-.92,2,13.82,13.82,0,0,0-.57,2.6,5.06,5.06,0,0,0,.65,3.76,3,3,0,0,0,1.34,1.05,5.07,5.07,0,0,0,1.88.31h3.41l.12-1.31.38-4.34c.12-1.28.19-2.3.2-3.06a5.73,5.73,0,0,0-.18-1.8A3.76,3.76,0,0,0,56.9,7.29ZM54.67,10.4c0,.31-.05.66-.08,1.06s-.07.87-.12,1.39l-.26,3h-.8q-.79,0-.93-.21a2.74,2.74,0,0,1-.1-1.67,11.46,11.46,0,0,1,.29-1.65,12.08,12.08,0,0,1,.5-1.57,5.16,5.16,0,0,1,.63-1.18.92.92,0,0,1,.69-.46c.13,0,.2.1.2.3S54.69,10,54.67,10.4Z"/><path class="e0a95550-aba0-4f5b-8367-cb449ef55faf" d="M110.2,7.29a1.8,1.8,0,0,0-.61-.53,2.37,2.37,0,0,0-.83-.24c-.3,0-.66,0-1.05,0a3,3,0,0,0-1.8.65A5.65,5.65,0,0,0,104.32,9a10.88,10.88,0,0,0-.9,2,12.41,12.41,0,0,0-.57,2.6,7,7,0,0,0,0,2.19,3.7,3.7,0,0,0,.64,1.57,3,3,0,0,0,1.33,1.05,5.11,5.11,0,0,0,1.88.31h3.41l.12-1.31.39-4.34c.12-1.28.18-2.3.2-3.06a6.09,6.09,0,0,0-.17-1.8A3.17,3.17,0,0,0,110.2,7.29ZM108,10.4c0,.31,0,.66-.06,1.06s-.07.87-.11,1.39l-.28,3h-.81c-.52,0-.83-.07-.92-.21a2.76,2.76,0,0,1-.11-1.67,13.11,13.11,0,0,1,.3-1.65,10.72,10.72,0,0,1,.5-1.57,5.16,5.16,0,0,1,.63-1.18.89.89,0,0,1,.69-.46c.13,0,.19.1.2.3S108,10,108,10.4Z"/><path class="e0a95550-aba0-4f5b-8367-cb449ef55faf" d="M150,9a18.37,18.37,0,0,0-.29-2.32,9.82,9.82,0,0,0-.64-2,7.79,7.79,0,0,0-1.14-1.87,6.49,6.49,0,0,0-1.63-1.4A7.85,7.85,0,0,0,144,.43a11.54,11.54,0,0,0-2.82-.31,11.18,11.18,0,0,0-5,1.08,11.46,11.46,0,0,0-3.76,2.94,14,14,0,0,0-1.36,2c0-.29-.08-.58-.14-.86a6.64,6.64,0,0,0-.79-2,5.28,5.28,0,0,0-1.57-1.63A8.11,8.11,0,0,0,126,.52a15.23,15.23,0,0,0-3.72-.4h-6.69l-.25,2.69a.61.61,0,0,0-.07-.1,6.49,6.49,0,0,0-1.63-1.4,7.91,7.91,0,0,0-2.2-.88,11.4,11.4,0,0,0-2.81-.31,11.27,11.27,0,0,0-5,1.08,11.52,11.52,0,0,0-3.75,2.94A15.36,15.36,0,0,0,98.58,6a7.41,7.41,0,0,0-.44-1.42A7.83,7.83,0,0,0,97,2.7a6.58,6.58,0,0,0-1.64-1.41,8.09,8.09,0,0,0-2.2-.88,12.08,12.08,0,0,0-2.82-.3H77.71L71.39,6.44l.43-4.76L72,.12H62.38l-.25,2.73a1.21,1.21,0,0,1-.1-.14,6.54,6.54,0,0,0-1.64-1.4,7.79,7.79,0,0,0-2.2-.88A11.6,11.6,0,0,0,55.37.12a11.25,11.25,0,0,0-5,1.08,11.46,11.46,0,0,0-3.76,2.94,14.3,14.3,0,0,0-1.43,2.12H39.62L40,1.68,40.17.12H30.59l-.12,1.31L30,6.28H17.39a22.61,22.61,0,0,0-6.79,1,16.21,16.21,0,0,0-5.55,3A14,14,0,0,0,1.5,14.85,15.57,15.57,0,0,0,0,21.08c0,.15,0,.29,0,.4v.28a14.19,14.19,0,0,0,.87,5,12.58,12.58,0,0,0,2.61,4.18,13.48,13.48,0,0,0,4.21,2.92,15.59,15.59,0,0,0,5.75,1.25h.88a21,21,0,0,0,6.75-1,14.67,14.67,0,0,0,5.38-3.22,15.27,15.27,0,0,0,3.52-5c.12-.27.22-.55.33-.83h4.6a1.83,1.83,0,0,1-.45.52,2.64,2.64,0,0,1-1.55.55L32.64,29h8.18a3.55,3.55,0,0,0,2.65-1A4.62,4.62,0,0,0,44.67,25H148.81l.28-2.86.71-7.89c.09-.95.14-1.88.18-2.77A24.07,24.07,0,0,0,150,9ZM88,9.13h1a.76.76,0,0,1,.54.14,1.24,1.24,0,0,1,.08.6c0,.34,0,.72-.05,1.13s-.07.79-.1,1.15-.06.59-.07.7l-.27,3h-2a7.12,7.12,0,0,0-.54-2.12,11.54,11.54,0,0,0-.84-1.56,6.25,6.25,0,0,0-1.1-1.29,6.69,6.69,0,0,0-1.44-1,7.28,7.28,0,0,0-1.83-.61l4-4-.34,3.85ZM24.51,28.78A12.07,12.07,0,0,1,20,31.41a18.26,18.26,0,0,1-5.71.85h-.75a13.17,13.17,0,0,1-4.65-1A10.15,10.15,0,0,1,5.56,29a9.26,9.26,0,0,1-2-3.26,11.35,11.35,0,0,1-.67-3.93v-.54a13,13,0,0,1,1.19-5.09,11.11,11.11,0,0,1,2.85-3.67A13.07,13.07,0,0,1,11.57,10a20.16,20.16,0,0,1,5.82-.82H23l-.32,3.43H16.35a10.85,10.85,0,0,0-3.68.62,9.4,9.4,0,0,0-3,1.77,8.47,8.47,0,0,0-2.06,2.68,8.21,8.21,0,0,0-.84,3.46,1.1,1.1,0,0,0,0,.18v.19a7.52,7.52,0,0,0,.57,3,6.53,6.53,0,0,0,1.63,2.29,7.26,7.26,0,0,0,2.41,1.47,9.86,9.86,0,0,0,3.08.59h.47a11.34,11.34,0,0,0,3.77-.63,8.52,8.52,0,0,0,3.26-2.08,9.87,9.87,0,0,0,2-3A13.74,13.74,0,0,0,25,18.74l.87-9.6h3.87l-.88,9.6a19,19,0,0,1-1.46,5.91A12.71,12.71,0,0,1,24.51,28.78ZM22.43,15.44l-.3,3.3a10.15,10.15,0,0,1-.77,3.18,7.13,7.13,0,0,1-1.45,2.15,5.88,5.88,0,0,1-2.3,1.45,8.52,8.52,0,0,1-2.72.44h-.36a5.6,5.6,0,0,1-3.67-1.31,3.69,3.69,0,0,1-.94-1.35,4.94,4.94,0,0,1-.32-1.83v-.26a5,5,0,0,1,.53-2.31,6.07,6.07,0,0,1,1.39-1.78,6.8,6.8,0,0,1,2.16-1.25,8,8,0,0,1,2.67-.43ZM33.2,3h3.86l-.29,3.27h0l-.12,1.31-1.17,13-.14,1.57H31.45ZM56.52,22.17H42.06L41.82,25h0a1.48,1.48,0,0,1-.16.66,1.85,1.85,0,0,1-.34.41h-3.9a3.61,3.61,0,0,0,.36-.55,2.1,2.1,0,0,0,.15-.52l1.43-15.9h3.86l-.38,4.37c-.06.45-.12.91-.16,1.38l-.33,3.86H45.8a9.34,9.34,0,0,1-.28-3.13l.1-1.16a21.58,21.58,0,0,1,1-4.43,12.42,12.42,0,0,1,2.19-4,8.27,8.27,0,0,1,2.8-2.2A8.57,8.57,0,0,1,55.37,3a6.6,6.6,0,0,1,3.38.73,4.3,4.3,0,0,1,1.79,2A7.65,7.65,0,0,1,61,7.39a16.29,16.29,0,0,1,.22,2c0,.7,0,1.45,0,2.23s-.09,1.6-.17,2.44l-.7,7.77,0,.38Zm13.44,0H63.23L65,3h3.86l-.59,6.59h0L68,12l-.58,6.73h13a7.67,7.67,0,0,0,0-1.67,2,2,0,0,0-.39-1,1.56,1.56,0,0,0-.85-.49,5.67,5.67,0,0,0-1.34-.13H70.58L71,10.83,78.9,3h4.86L77.62,9.13,74.75,12h4.06a8.06,8.06,0,0,1,1.92.21,5.53,5.53,0,0,1,1.51.59,4.42,4.42,0,0,1,1.83,2.1,3.7,3.7,0,0,1,.25.78,4.08,4.08,0,0,1,.1.81,8.29,8.29,0,0,1,0,1c0,.36-.05.78-.1,1.27L84,22l0,.19Zm77.16-10.59c0,.79-.08,1.6-.17,2.44l-.73,8.15H86.87l.31-3.45H91.8l.12-1.31.39-4.32c.11-1.29.18-2.31.2-3.07a5.92,5.92,0,0,0-.19-1.8A2.92,2.92,0,0,0,91.68,7a2.26,2.26,0,0,0-.93-.57,3.85,3.85,0,0,0-1.15-.17H88.28L88.6,3h1.75a6.59,6.59,0,0,1,3.38.74,4.3,4.3,0,0,1,1.79,2,6.79,6.79,0,0,1,.47,2,25.21,25.21,0,0,1,.17,2.59c0,.93,0,1.89,0,2.87,0,.58-.07,1.14-.11,1.67a.22.22,0,0,1,0,.08l-.3,3.55,0,.29h0v0h3.45a8.73,8.73,0,0,1-.27-3.55v-.07a22.38,22.38,0,0,1,1-5.1,12.42,12.42,0,0,1,2.19-4,8.11,8.11,0,0,1,2.81-2.2,8.57,8.57,0,0,1,3.8-.79,6.54,6.54,0,0,1,3.36.73,4.33,4.33,0,0,1,1.8,2,10.18,10.18,0,0,1,.72,3.63,35.69,35.69,0,0,1-.09,3.67l-.16,1.83L114,18.72h10.33a2.79,2.79,0,0,1-.22-.43,4.6,4.6,0,0,1-.19-.65,6.1,6.1,0,0,1-.11-.78,7.3,7.3,0,0,1,0-.81l.56-6.22c0-.35.06-.71.07-1.06a2.06,2.06,0,0,0-.19-1,1.63,1.63,0,0,0-.78-.72,3.93,3.93,0,0,0-1.7-.28l-.81,9.06h-3.83l.14-1.58c0-.38,0-.73.07-1.1L118.23,3h3.85a10.7,10.7,0,0,1,2.81.31,5.51,5.51,0,0,1,1.84.81,3.51,3.51,0,0,1,1,1.2,4.94,4.94,0,0,1,.46,1.44,7.94,7.94,0,0,1,.08,1.55c0,.53-.06,1-.11,1.53l-.54,6a5.56,5.56,0,0,0,0,.82,7.9,7.9,0,0,0,.07.85,3.53,3.53,0,0,0,.19.73,1.19,1.19,0,0,0,.3.47v0h3.45a10,10,0,0,1-.27-3.6A21.91,21.91,0,0,1,132.44,10a12.42,12.42,0,0,1,2.19-4,8.08,8.08,0,0,1,2.8-2.2A8.53,8.53,0,0,1,141.22,3a6.6,6.6,0,0,1,3.38.73,4.38,4.38,0,0,1,1.8,2,7.64,7.64,0,0,1,.49,1.66,14.48,14.48,0,0,1,.22,2C147.15,10.05,147.15,10.8,147.12,11.58Z"/><path class="e0a95550-aba0-4f5b-8367-cb449ef55faf" d="M142.75,7.29a1.71,1.71,0,0,0-.61-.53,2.32,2.32,0,0,0-.81-.24c-.31,0-.66,0-1.05,0a3,3,0,0,0-1.81.65A5.75,5.75,0,0,0,136.89,9a10.27,10.27,0,0,0-.92,2,13.08,13.08,0,0,0-.57,2.6,5,5,0,0,0,.65,3.76,3,3,0,0,0,1.33,1.05,5.11,5.11,0,0,0,1.88.31h3.41l.12-1.31.39-4.34c.11-1.28.18-2.3.2-3.06a5.73,5.73,0,0,0-.18-1.8A3.43,3.43,0,0,0,142.75,7.29Zm-2.23,3.11c0,.31-.05.66-.08,1.06s-.07.87-.11,1.39l-.26,3h-.81c-.52,0-.83-.07-.92-.21a2.71,2.71,0,0,1-.11-1.67,13.11,13.11,0,0,1,.3-1.65,10.72,10.72,0,0,1,.5-1.57,5.16,5.16,0,0,1,.63-1.18.89.89,0,0,1,.69-.46c.12,0,.19.1.2.3S140.54,10,140.52,10.4Z"/></svg>