<svg xmlns="http://www.w3.org/2000/svg" xmlns:xlink="http://www.w3.org/1999/xlink" width="2942" height="2942" viewBox="0 0 2942 2942"><defs><style>.b9a3dfed-dbab-4c96-a861-5bdde7106139{isolation:isolate;}.e5321d09-4df1-4db5-9476-983e7a6064b2{fill:#f4f7fa;}.a1047712-5060-4fb0-a28c-df754bd7d583{fill:#d8dee8;}.a82cebac-43da-4a58-9aaa-c0ee0c755cc8{fill:url(#b63f90a0-bc54-435f-a6e4-c3d5d1cce7b7);}.afa46664-b08e-4dcd-865f-0ad364ed8c5f{mix-blend-mode:soft-light;opacity:0.8;}.a3867e5d-7f33-42cc-9e7e-458b870fee09{fill:#fff;}.a29f39b6-72a6-40e3-b686-b12b129bba2f{fill:url(#b1e79b89-1ca6-4972-a0a8-283ccf60388b);}.a8cff7b8-83c3-4154-84b1-4fc7ea4bda2c{fill:url(#aeb90a3d-b0bd-4ddb-9775-26be61e0b533);}.bd84f485-8375-40a7-9dde-f2c73830fbc8{fill:url(#a3605b8b-1d34-4063-8137-8e56677aaff9);}.a3edee4f-7ecc-4698-a4bc-207a8101cef4{fill:url(#a242116f-73fa-4681-af70-8f894586d001);}.a68b63a4-f97c-4f1f-b349-d3aeafae2c7a{fill:url(#e36cb7c0-13a5-42d5-beed-5dbe953ae251);}.f19cf271-fe37-4488-9d80-2c8015d95684{fill:url(#a2e145d9-e390-4022-b1dc-22f72505b583);}.e1d2201a-b570-4025-8703-c755c46c1b7c{fill:url(#bc3c9116-9251-4c31-b004-9e077897d76d);}.e686a7f7-2280-4550-8d62-81239f3812ba{fill:url(#a7913795-33bf-4938-b0ed-a6c80d59f4af);}.e351e8fd-3acf-45cd-b14f-b3a24fdac345{fill:url(#b39f0195-b0b7-4894-ac9e-a99bd5b69355);}.b206d505-96df-4740-852e-23034c4663ed{fill:url(#a20815a4-dd52-43e5-bcef-a0cc4d2f19a5);}.b25956b4-26af-4754-8ebb-d658370fe9cf,.bf03c7c5-0de0-4bb5-bdd8-de88ac1a4e8d,.fbf2ff18-2c30-4237-ac80-454e34c5f730{mix-blend-mode:multiply;}.fbf2ff18-2c30-4237-ac80-454e34c5f730{opacity:0.54;}.af717a64-9e67-4675-9220-1a000aa1bd2a{fill:url(#bcb38b5e-3820-4125-9a58-be4084c50daa);}.fd99143f-4198-41b9-98f8-66132060ba0d{fill:url(#f1664716-c4b7-46a5-8db9-7c45ace78d50);}.a5bf1a9d-132d-426c-abfb-0d2d03af0942{fill:url(#e051816f-e7d1-41b0-bef3-43c8629f423a);}.b009abe5-24d3-45bb-bcdf-3522919c9d7f{fill:url(#b0ebef52-9abb-4ad4-837d-3ab2fd3870e8);}.bcc0b237-026a-4749-892c-a8e4768ba2af{fill:url(#ad9d8d64-7dd5-41c1-b73c-a2eb282c9754);}.b25956b4-26af-4754-8ebb-d658370fe9cf,.bf03c7c5-0de0-4bb5-bdd8-de88ac1a4e8d{opacity:0.3;}.a215ec2b-bb73-49c8-adab-f3dcdf290dea{fill:url(#badf9e78-ffb8-41d7-8925-f5b17d4775b5);}.a853df89-7971-4306-92ff-a0362484c502{fill:url(#b4ca5c19-bd0c-4b6c-97a4-096b6d043de4);}.b2a7a594-a0f2-4452-8db4-c4daf2dcc139{fill:url(#a6ccc791-812e-4964-a0c4-1da032de6b04);}.aa7c7270-6a47-4a74-a8f4-7ed22aff5cc5{fill:url(#a05acfa6-d6ae-46e5-bcee-f9c1358dc4eb);}.f1eb9705-80c5-42c4-a070-a83f79d22f61{fill:url(#a9a1f69e-6a13-400a-8ba7-db1b0901c4ee);}.a326e97b-8a54-4a73-a3bf-49fd5ea37a7b{fill:url(#ee12819e-d14e-4954-90d6-e1f93dc7e0e1);}.fadabdc6-020a-4941-b718-3c33cdd03df3{fill:url(#fedef534-18a4-4fe8-a8aa-974a577263d0);}.b8d3efec-8fe5-47ee-b401-f9b104b0a6b3{fill:url(#a5af8498-3020-4ee7-b59e-adc65eaf27aa);}.a16cb354-72b5-4e3b-9c67-8031430676a1{fill:url(#f773b536-e741-4a7c-b2a0-c04a0b5767c8);}.f5704478-93fa-41ec-81f6-655927fa4b29{fill:url(#e10cc667-d495-4cac-9d58-e2c3572be87c);}.a4608c4e-df32-43e7-a913-acaaa21e277d{fill:url(#b721c694-6f91-448b-adc2-7f24092e271c);}.ac03d0d6-ca4e-48b0-8d83-08bc90c7d604{fill:url(#bcd8acd3-dd80-4a7c-82ee-e58a442f8306);}.bf03c7c5-0de0-4bb5-bdd8-de88ac1a4e8d{fill:url(#a3750204-16e8-401b-9d9d-aab511c8eb82);}.e13b071b-646a-4e10-857c-c8fb738ce431{fill:url(#ab83da8b-b3ad-45bf-a5bb-7cf0ae1d052e);}.f25c014f-dcbe-4396-ba05-5e3cd9200649{fill:url(#e9bb633c-d743-441f-a23c-d8d22530e9d0);}</style><linearGradient id="b63f90a0-bc54-435f-a6e4-c3d5d1cce7b7" x1="3710.23" y1="2297.13" x2="4178.32" y2="2297.13" gradientTransform="matrix(-1, 0, 0, 1, 6031.41, 0)" gradientUnits="userSpaceOnUse"><stop offset="0" stop-color="#ff9085"/><stop offset="1" stop-color="#fb6fbb"/></linearGradient><linearGradient id="b1e79b89-1ca6-4972-a0a8-283ccf60388b" x1="3296.91" y1="2179.62" x2="4043.1" y2="2179.62" gradientTransform="matrix(-1, 0, 0, 1, 6031.41, 0)" gradientUnits="userSpaceOnUse"><stop offset="0" stop-color="#ffc444"/><stop offset="1" stop-color="#f36f56"/></linearGradient><linearGradient id="aeb90a3d-b0bd-4ddb-9775-26be61e0b533" x1="3192.1" y1="2570.64" x2="3940.64" y2="2570.64" gradientTransform="matrix(-1, 0, 0, 1, 6031.41, 0)" gradientUnits="userSpaceOnUse"><stop offset="0" stop-color="#e38ddd"/><stop offset="1" stop-color="#9571f6"/></linearGradient><linearGradient id="a3605b8b-1d34-4063-8137-8e56677aaff9" x1="2130.45" y1="1191.46" x2="2537.9" y2="1191.46" gradientTransform="translate(1526.16 -1301.54) rotate(45)" xlink:href="#b63f90a0-bc54-435f-a6e4-c3d5d1cce7b7"/><linearGradient id="a242116f-73fa-4681-af70-8f894586d001" x1="1912.81" y1="847.71" x2="1468.36" y2="1454.89" gradientTransform="translate(1052.64 -1280.33) rotate(45)" xlink:href="#b1e79b89-1ca6-4972-a0a8-283ccf60388b"/><linearGradient id="e36cb7c0-13a5-42d5-beed-5dbe953ae251" x1="440.84" y1="481.89" x2="825.79" y2="704.75" gradientUnits="userSpaceOnUse"><stop offset="0" stop-color="#444b8c"/><stop offset="1" stop-color="#26264f"/></linearGradient><linearGradient id="a2e145d9-e390-4022-b1dc-22f72505b583" x1="766.9" y1="381.38" x2="147.49" y2="1311.95" gradientTransform="matrix(1, 0, 0, 1, 0, 0)" xlink:href="#aeb90a3d-b0bd-4ddb-9775-26be61e0b533"/><linearGradient id="bc3c9116-9251-4c31-b004-9e077897d76d" x1="796.63" y1="353.08" x2="610.55" y2="613.31" gradientTransform="matrix(1, 0, 0, 1, 0, 0)" xlink:href="#aeb90a3d-b0bd-4ddb-9775-26be61e0b533"/><linearGradient id="a7913795-33bf-4938-b0ed-a6c80d59f4af" x1="445.29" y1="55.51" x2="725.72" y2="805.77" gradientTransform="matrix(1, 0, 0, 1, 0, 0)" xlink:href="#aeb90a3d-b0bd-4ddb-9775-26be61e0b533"/><linearGradient id="b39f0195-b0b7-4894-ac9e-a99bd5b69355" x1="276.35" y1="1534.02" x2="834.77" y2="28.93" gradientUnits="userSpaceOnUse"><stop offset="0" stop-color="#ebeff2"/><stop offset="1" stop-color="#fff"/></linearGradient><linearGradient id="a20815a4-dd52-43e5-bcef-a0cc4d2f19a5" x1="839.44" y1="349.5" x2="507.26" y2="1017.63" gradientTransform="matrix(1, 0, 0, 1, 0, 0)" xlink:href="#aeb90a3d-b0bd-4ddb-9775-26be61e0b533"/><linearGradient id="bcb38b5e-3820-4125-9a58-be4084c50daa" x1="474.42" y1="284.79" x2="831.2" y2="949.9" gradientTransform="matrix(1, 0, 0, 1, 0, 0)" xlink:href="#b63f90a0-bc54-435f-a6e4-c3d5d1cce7b7"/><linearGradient id="f1664716-c4b7-46a5-8db9-7c45ace78d50" x1="506.03" y1="267.84" x2="862.81" y2="932.94" gradientTransform="matrix(1, 0, 0, 1, 0, 0)" xlink:href="#b63f90a0-bc54-435f-a6e4-c3d5d1cce7b7"/><linearGradient id="e051816f-e7d1-41b0-bef3-43c8629f423a" x1="134.42" y1="-183.59" x2="949.4" y2="1335.69" gradientTransform="matrix(1, 0, 0, 1, 0, 0)" xlink:href="#b63f90a0-bc54-435f-a6e4-c3d5d1cce7b7"/><linearGradient id="b0ebef52-9abb-4ad4-837d-3ab2fd3870e8" x1="4611.76" y1="647.3" x2="3848.76" y2="4305.51" gradientTransform="translate(-2947.91)" xlink:href="#b63f90a0-bc54-435f-a6e4-c3d5d1cce7b7"/><linearGradient id="ad9d8d64-7dd5-41c1-b73c-a2eb282c9754" x1="4347.57" y1="592.19" x2="3584.57" y2="4250.39" gradientTransform="translate(-2947.91)" xlink:href="#b63f90a0-bc54-435f-a6e4-c3d5d1cce7b7"/><linearGradient id="badf9e78-ffb8-41d7-8925-f5b17d4775b5" x1="3691.4" y1="3720.82" x2="3980.97" y2="2345.34" gradientTransform="translate(-2947.91)" xlink:href="#b63f90a0-bc54-435f-a6e4-c3d5d1cce7b7"/><linearGradient id="b4ca5c19-bd0c-4b6c-97a4-096b6d043de4" x1="3824.89" y1="483.18" x2="3061.89" y2="4141.38" gradientTransform="translate(-2947.91)" xlink:href="#b63f90a0-bc54-435f-a6e4-c3d5d1cce7b7"/><linearGradient id="a6ccc791-812e-4964-a0c4-1da032de6b04" x1="4475.38" y1="2525.54" x2="4351.92" y2="2175.71" gradientTransform="translate(-2947.91)" gradientUnits="userSpaceOnUse"><stop offset="0" stop-color="#311944"/><stop offset="1" stop-color="#893976"/></linearGradient><linearGradient id="a05acfa6-d6ae-46e5-bcee-f9c1358dc4eb" x1="3936.01" y1="2018.7" x2="3981.28" y2="2331.48" xlink:href="#a6ccc791-812e-4964-a0c4-1da032de6b04"/><linearGradient id="a9a1f69e-6a13-400a-8ba7-db1b0901c4ee" x1="1793.15" y1="2067.8" x2="2049.01" y2="2067.8" gradientTransform="matrix(-1, 0, 0, 1, 2774.26, 0)" xlink:href="#b1e79b89-1ca6-4972-a0a8-283ccf60388b"/><linearGradient id="ee12819e-d14e-4954-90d6-e1f93dc7e0e1" x1="903.38" y1="189.93" x2="1087.7" y2="1305.15" gradientTransform="matrix(1, 0, 0, 1, 0, 0)" xlink:href="#b1e79b89-1ca6-4972-a0a8-283ccf60388b"/><linearGradient id="fedef534-18a4-4fe8-a8aa-974a577263d0" x1="2110.97" y1="503.41" x2="1990.4" y2="861.94" gradientTransform="translate(-1021.94 990.03) rotate(-30.46)" xlink:href="#e36cb7c0-13a5-42d5-beed-5dbe953ae251"/><linearGradient id="a5af8498-3020-4ee7-b59e-adc65eaf27aa" x1="1130.7" y1="725.8" x2="1043.36" y2="1435.76" gradientTransform="matrix(1, 0, 0, 1, 0, 0)" xlink:href="#b1e79b89-1ca6-4972-a0a8-283ccf60388b"/><linearGradient id="f773b536-e741-4a7c-b2a0-c04a0b5767c8" x1="-1109.06" y1="1182.24" x2="-1087.29" y2="1501.17" gradientTransform="matrix(-1, 0.01, 0.01, 1, -26.31, -186.42)" xlink:href="#e36cb7c0-13a5-42d5-beed-5dbe953ae251"/><linearGradient id="e10cc667-d495-4cac-9d58-e2c3572be87c" x1="-1171.68" y1="1851.46" x2="-1171.68" y2="1071.54" gradientTransform="matrix(-1, 0.01, 0.01, 1, -26.31, -186.42)" xlink:href="#e36cb7c0-13a5-42d5-beed-5dbe953ae251"/><linearGradient id="b721c694-6f91-448b-adc2-7f24092e271c" x1="4833.04" y1="2046.09" x2="4592.32" y2="1704.27" gradientTransform="translate(-2947.91)" xlink:href="#e36cb7c0-13a5-42d5-beed-5dbe953ae251"/><linearGradient id="bcd8acd3-dd80-4a7c-82ee-e58a442f8306" x1="4371.3" y1="2611.79" x2="4898.1" y2="1541.74" xlink:href="#a6ccc791-812e-4964-a0c4-1da032de6b04"/><linearGradient id="a3750204-16e8-401b-9d9d-aab511c8eb82" x1="4113.97" y1="1925" x2="5271.27" y2="1925" xlink:href="#a6ccc791-812e-4964-a0c4-1da032de6b04"/><linearGradient id="ab83da8b-b3ad-45bf-a5bb-7cf0ae1d052e" x1="2169.48" y1="2195.53" x2="2334.17" y2="2195.53" gradientTransform="matrix(1, 0, 0, 1, 0, 0)" xlink:href="#b1e79b89-1ca6-4972-a0a8-283ccf60388b"/><linearGradient id="e9bb633c-d743-441f-a23c-d8d22530e9d0" x1="1451.28" y1="1034.62" x2="1882.5" y2="1034.62" gradientTransform="translate(1219.81 -875.63) rotate(45)" gradientUnits="userSpaceOnUse"><stop offset="0" stop-color="#aa80f9"/><stop offset="1" stop-color="#6165d7"/></linearGradient></defs><g class="b9a3dfed-dbab-4c96-a861-5bdde7106139"><g id="f81f0ba0-55dc-4e64-be13-781aef81e24b" data-name="Illustration"><path class="e5321d09-4df1-4db5-9476-983e7a6064b2" d="M2829.82,1268.1C2753.93,771.35,2442.77,161.05,1828,97.18c0,0-466.73-56.77-926.83,29.27C628.14,177.52,388.7,329.53,237.19,548S35.07,1032.9,96.49,1286.88c39.89,165,66.85,335.7,59.45,505.21-9.33,213.78-26.9,438.55,67.61,637.91C362,2722.09,699.88,2808.13,994.68,2835.57c108.64,10.11,217.68,14.19,326.41,22.78,208.59,16.49,442.51-10.19,643.55-64.5C2989.19,2517.09,2905.71,1764.86,2829.82,1268.1Z"/><path class="a1047712-5060-4fb0-a28c-df754bd7d583" d="M2574.09,914.11l-80.4-10.54a652.54,652.54,0,0,0-14.83-114.25l74.6-31.23a41.45,41.45,0,0,0,22.15-54.1L2521.13,572.3a41,41,0,0,0-53.64-22.25l-75,31.27a650.53,650.53,0,0,0-69.22-90.27l49.56-64.7a41.1,41.1,0,0,0-7.52-57.55l-112-86.07a41,41,0,0,0-57.42,7.58L2146,355.09a636.69,636.69,0,0,0-104.43-42.75L2052.67,231a40.63,40.63,0,0,0-35-45.84l-140-18.36A41.3,41.3,0,0,0,1831.51,202l-11.45,82a642.44,642.44,0,0,0-111.77,14.81l-31-76.47A40.64,40.64,0,0,0,1624,200.19l-131.42,54.15a41.42,41.42,0,0,0-22.87,53.55l31.14,77.44A663.55,663.55,0,0,0,1410.91,454l-66.08-51.22c-17.82-13.81-43.68-10.4-57.77,7.64l-88.3,113c-14.14,18.1-11.16,44,6.69,57.89l66.26,51.52a660.05,660.05,0,0,0-44.45,104.66l-84.08-11c-22.58-3-43.61,13.06-47,35.8l-21.14,142.48a40.75,40.75,0,0,0,34.86,46.72l84.34,11.07a653.17,653.17,0,0,0,12.68,113.11l-79.14,33a42.77,42.77,0,0,0-23.41,54.83l52.73,134a40.81,40.81,0,0,0,54,22.66l79.18-33.15a650.18,650.18,0,0,0,67.83,91.33l-52.76,68.51c-14.28,18.55-11.22,45.08,6.85,59.25l113.11,88.74c18.11,14.21,44.36,10.63,58.61-8l52.14-68A636.47,636.47,0,0,0,1641.38,1563l-11.86,84.94c-3.25,23.25,12.62,44.54,35.46,47.54l142.81,18.73c22.84,3,43.93-13.45,47.11-36.71l11.52-84.3a643.6,643.6,0,0,0,114.12-15.05l31.33,77.89a41.14,41.14,0,0,0,54.35,22.8l133.18-56.43c21.27-9,31.43-33.81,22.69-55.38l-31.33-77.33a664,664,0,0,0,91.54-71.17l65.08,50.6a41.14,41.14,0,0,0,58.25-7.94l87.22-115.61a42.42,42.42,0,0,0-7.68-58.91l-64.51-50a660.13,660.13,0,0,0,43.77-107.56l80.65,10.58a41.43,41.43,0,0,0,46.31-36.08l18.3-142.85A41.57,41.57,0,0,0,2574.09,914.11ZM2352,999c-37.63,283.61-296.54,484.85-578.08,447.92S1297.31,1149.18,1338,866c40.45-281.5,298.82-478.86,577.31-442.33S2389.4,717.06,2352,999Z"/><path class="a82cebac-43da-4a58-9aaa-c0ee0c755cc8" d="M2068.46,2731.58l1,.15c52.9,8.45,119.2,2.55,162-32.66,22.57-18.55,37.86-43,42.56-72,2.78-17.19,4.3-35.32,1.61-52.61-2.82-18.1-9.82-35.59-18.83-51.46a246.8,246.8,0,0,0-16.86-25.6c-17.45-23.41-58.67-56.3-39.56-89.49,11.56-20.06,38.19-32.41,55.78-46.48,37.61-30.07,64.62-73.43,65-122.93.3-38.9-24.08-77.4-51.59-103.55-112-106.41-29.48-289.42-188-275s-193,172.62-133.58,320.37c19.88,49.47,44.08,100,57.59,151.73,10.63,40.69-4.4,68.84-37.54,92.89-17.83,12.93-43.89,21.75-59.38,37-34.6,34-62.32,81.78-54.06,131.73,8.2,49.56,50.43,85.95,95,104.78C1988,2714.69,2027.29,2725,2068.46,2731.58Z"/><g class="afa46664-b08e-4dcd-865f-0ad364ed8c5f"><path class="a3867e5d-7f33-42cc-9e7e-458b870fee09" d="M2087.14,2689.06a3.1,3.1,0,0,0,1.11-.2,3.27,3.27,0,0,0,1.95-4.18c-.67-1.83-66.38-185.28-8.85-332.29,58.47-149.42-6.93-309.37-7.6-311a3.26,3.26,0,0,0-6,2.51c.66,1.57,65,159.17,7.55,306.08-58.44,149.34,8.11,335,8.79,336.91A3.28,3.28,0,0,0,2087.14,2689.06Z"/></g><path class="a29f39b6-72a6-40e3-b686-b12b129bba2f" d="M2035,2456a456.35,456.35,0,0,1,44.32-58.65c53.58-60.41,91.19-124.54,115.25-201.91,19-60.95,18.55-130.64,30.31-193.56,8.53-45.6,24-89.73,40-133.15,34.16-92.44,85.44-199.7,171.5-255.21,39.85-25.7,98.94-28.24,142.89-9.83,56.94,23.86,107.28,70.33,110.93,135,5,88.86-72.6,188.48-8.41,270.2,98.3,125.13,52.35,264.14-82.78,332.18-44,22.17-95.65,42.73-132.45,76.78s-14.9,92.43-10.8,135.7c3.85,40.6,8.09,87.77-17.78,122.48-43.65,58.56-149.06,84.08-217.57,89.87-66.3,5.6-141.63-1.73-188.06-54.81C1962.42,2631.1,1985.26,2534.81,2035,2456Z"/><g class="afa46664-b08e-4dcd-865f-0ad364ed8c5f"><path class="a3867e5d-7f33-42cc-9e7e-458b870fee09" d="M2142.92,2710.79a3.25,3.25,0,0,0,3-2.11c2.15-5.69,216.52-571.42,338.84-799.4a3.26,3.26,0,1,0-5.74-3.08c-122.52,228.36-337.05,794.48-339.2,800.18a3.25,3.25,0,0,0,1.9,4.2A3.33,3.33,0,0,0,2142.92,2710.79Z"/></g><path class="a8cff7b8-83c3-4154-84b1-4fc7ea4bda2c" d="M2235.58,2790.81c-14.27-2-28.49-4.36-42.65-6.64-39.59-6.35-88.62-18.68-101.07-62.84-3.54-12.58,2.56-35,4-48.11a332.44,332.44,0,0,1,6.5-39.68,204.58,204.58,0,0,1,20-51.21c15.42-28.12,33-49.27,65.84-55.64,23.93-4.65,50.43-5.73,74.74-4.93,132.53,4.35,148.83-43.45,221.62-145.57s551.87,63,262.9,244.43c0,0-43.46,28.24-202.06,9.78-29-3.38-65.71-5.63-90.3,13.14-43.38,33.09.24,103.23-43.56,130.75-25.54,16-66.59,20.76-95.93,21.89C2288.86,2797.21,2262.14,2794.57,2235.58,2790.81Z"/><g class="afa46664-b08e-4dcd-865f-0ad364ed8c5f"><path class="a3867e5d-7f33-42cc-9e7e-458b870fee09" d="M2147.11,2736.14a3.27,3.27,0,0,0,2.65-1.35c.83-1.15,84.73-115.21,203.76-142.13,46.56-10.54,86.81-34.1,125.73-56.89,65.62-38.43,127.61-74.74,219.09-56.08a3.26,3.26,0,1,0,1.3-6.39c-93.92-19.15-159.89,19.48-223.69,56.84-38.49,22.54-78.29,45.85-123.87,56.16-121.46,27.47-206.75,143.5-207.6,144.66a3.27,3.27,0,0,0,.72,4.56A3.32,3.32,0,0,0,2147.11,2736.14Z"/></g><circle class="a3867e5d-7f33-42cc-9e7e-458b870fee09" cx="2334.17" cy="1191.46" r="229.34" transform="translate(-158.83 1999.48) rotate(-45)"/><circle class="bd84f485-8375-40a7-9dde-f2c73830fbc8" cx="2334.17" cy="1191.46" r="203.73" transform="translate(-158.83 1999.48) rotate(-45)"/><path class="e5321d09-4df1-4db5-9476-983e7a6064b2" d="M2329.43,1173.13a10.31,10.31,0,0,0,8.72,0l112.13-57.49c-4-3.34-9.42-4.67-15.35-4.67H2232.64c-5.91,0-11.27,1.32-15.31,4.64Z"/><path class="e5321d09-4df1-4db5-9476-983e7a6064b2" d="M2347.31,1188.1a29.57,29.57,0,0,1-13.76,3.31,33.55,33.55,0,0,1-14.77-3.32L2208.18,1131v121.14c0,11.26,11.92,23.3,24.46,23.3h202.29c12.54,0,21.73-12,21.73-23.3V1131.07Z"/><circle class="a3867e5d-7f33-42cc-9e7e-458b870fee09" cx="2071.82" cy="630.49" r="229.34" transform="translate(161 1649.66) rotate(-45)"/><circle class="a3edee4f-7ecc-4698-a4bc-207a8101cef4" cx="2071.82" cy="630.49" r="203.73" transform="translate(161 1649.66) rotate(-45)"/><path class="a3867e5d-7f33-42cc-9e7e-458b870fee09" d="M2094.86,660.52l-7.49-.21a82.73,82.73,0,0,0-5.08-21.76l6.54-3.8a8.51,8.51,0,0,0,3-11.18l-.9-1.76a7.52,7.52,0,0,0-10.46-3.4l-6.59,3.8a79.75,79.75,0,0,0-14.64-16.43l3.89-6.85a8.78,8.78,0,0,0-2.68-11.47l-1.62-1.08A7.43,7.43,0,0,0,2048.1,589l-3.92,6.87a72.42,72.42,0,0,0-20.52-6.68l.11-8.16a8.48,8.48,0,0,0-7.8-8.75l-1.92-.09a7.9,7.9,0,0,0-8.08,8.05l-.12,8.21a70.89,70.89,0,0,0-21,5.05l-3.82-7.28a8,8,0,0,0-11-3.58l-1.71.95a8.57,8.57,0,0,0-3.13,11.47l3.86,7.33a76.19,76.19,0,0,0-15.77,15.7l-6.83-4.39a7.92,7.92,0,0,0-11.24,2.71l-1,1.76A8.82,8.82,0,0,0,1937,629.9l6.86,4.38a81.56,81.56,0,0,0-6,22.14l-8-.22a8.27,8.27,0,0,0-8.36,8.33l0,2.07a8.5,8.5,0,0,0,8.13,8.74l8,.19a83.12,83.12,0,0,0,5.45,22.39l-6.95,4a8.67,8.67,0,0,0-3.16,11.59l1,1.8a8,8,0,0,0,11.15,3.27l7-4.05A78.81,78.81,0,0,0,1967.38,731l-4,7.09a8.63,8.63,0,0,0,2.8,11.58l1.68,1a7.92,7.92,0,0,0,11.07-3l4-7.08a72.24,72.24,0,0,0,20.85,6l-.11,8.16a8.08,8.08,0,0,0,7.82,8.42h1.92a8.25,8.25,0,0,0,8-8.32l.11-8.15a71.64,71.64,0,0,0,20.67-5.68l3.7,7a7.51,7.51,0,0,0,10.6,3.12l1.65-1a8.64,8.64,0,0,0,3-11.29l-3.69-7a76.81,76.81,0,0,0,15.07-15.68l6.44,4.12a7.43,7.43,0,0,0,10.55-2.87l.95-1.71a8.59,8.59,0,0,0-2.63-11.3l-6.43-4.13a82.08,82.08,0,0,0,5.68-21.49l7.47.17a7.87,7.87,0,0,0,7.77-8l0-2C2102.45,664.4,2099.08,660.63,2094.86,660.52Zm-81.67,44c-19.29-.33-34.82-17.18-34.53-37.63S1995,630.38,2014.25,631c19.14.64,34.3,17.5,34,37.65S2032.32,704.87,2013.19,704.54Z"/><path class="a3867e5d-7f33-42cc-9e7e-458b870fee09" d="M2216.55,571.13,2211,571a62,62,0,0,0-3.79-16.23l4.88-2.83a6.34,6.34,0,0,0,2.22-8.33l-.67-1.32a5.61,5.61,0,0,0-7.8-2.54l-4.92,2.84A58.89,58.89,0,0,0,2190,530.3l2.9-5.11a6.52,6.52,0,0,0-2-8.55l-1.21-.8a5.52,5.52,0,0,0-8,1.93l-2.93,5.12a54,54,0,0,0-15.31-5l.09-6.09a6.32,6.32,0,0,0-5.82-6.52l-1.43-.07a5.89,5.89,0,0,0-6,6l-.09,6.13a52.81,52.81,0,0,0-15.69,3.76l-2.84-5.43a6,6,0,0,0-8.2-2.66l-1.27.71a6.38,6.38,0,0,0-2.34,8.55l2.88,5.46a57.29,57.29,0,0,0-11.77,11.71l-5.09-3.27a5.91,5.91,0,0,0-8.38,2l-.76,1.31a6.58,6.58,0,0,0,2.13,8.77l5.11,3.27a61,61,0,0,0-4.48,16.51l-6-.16a6.16,6.16,0,0,0-6.23,6.21l0,1.54a6.33,6.33,0,0,0,6.06,6.52l6,.14a61.76,61.76,0,0,0,4.07,16.71l-5.19,3a6.47,6.47,0,0,0-2.36,8.64l.72,1.35a6,6,0,0,0,8.32,2.44l5.18-3a59,59,0,0,0,11.45,12.24l-3,5.29a6.42,6.42,0,0,0,2.09,8.63l1.25.77a5.9,5.9,0,0,0,8.25-2.24l3-5.28a54.15,54.15,0,0,0,15.56,4.5l-.09,6.09a6,6,0,0,0,5.84,6.27h1.43a6.15,6.15,0,0,0,6-6.2l.09-6.08a53.11,53.11,0,0,0,15.41-4.24l2.76,5.24a5.6,5.6,0,0,0,7.91,2.32l1.22-.74a6.43,6.43,0,0,0,2.25-8.42l-2.75-5.25a57.72,57.72,0,0,0,11.24-11.69l4.8,3.06a5.53,5.53,0,0,0,7.87-2.14l.71-1.27a6.42,6.42,0,0,0-2-8.43l-4.79-3.08a61.17,61.17,0,0,0,4.24-16l5.57.13a5.86,5.86,0,0,0,5.79-6l0-1.49A6,6,0,0,0,2216.55,571.13ZM2155.64,604c-14.39-.25-26-12.81-25.76-28.06s12.15-27.25,26.55-26.77,25.58,13,25.36,28.08S2169.91,604.21,2155.64,604Z"/><path class="a68b63a4-f97c-4f1f-b349-d3aeafae2c7a" d="M890.73,570c.39,176.86-93.62,321.19-261.05,325.94-2.58.07-45.31,0-47.92,0-171,.42-310-144.84-310.39-324.44s137.93-325.52,309-325.94c4,0,41.54.36,45.5.51C791.34,252.21,890.34,394.55,890.73,570Z"/><ellipse class="f19cf271-fe37-4488-9d80-2c8015d95684" cx="638.94" cy="573.61" rx="309.68" ry="325.19"/><ellipse class="e1d2201a-b570-4025-8703-c755c46c1b7c" cx="638.94" cy="573.61" rx="301.88" ry="317"/><ellipse class="e686a7f7-2280-4550-8d62-81239f3812ba" cx="638.94" cy="573.61" rx="292.76" ry="307.43"/><ellipse class="e351e8fd-3acf-45cd-b14f-b3a24fdac345" cx="632.68" cy="573.61" rx="286.51" ry="300.86"/><path class="b206d505-96df-4740-852e-23034c4663ed" d="M662.93,565l218.25,84.63a265.66,265.66,0,0,0,10.93-75.7c0-135.77-101.51-246.64-229.18-253.48Z"/><g class="fbf2ff18-2c30-4237-ac80-454e34c5f730"><path class="a1047712-5060-4fb0-a28c-df754bd7d583" d="M560.75,566.78C538.09,493.4,620,440.45,607.09,354.92c-5.7-37.75-27.88-68.67-55.15-93.48C423,301,328.94,426.22,329.26,574.36c.4,179.6,139.37,324.85,310.4,324.44A296.16,296.16,0,0,0,758,873.88c-5.28-103.8-37.12-162.43-71-197.75C634.84,621.69,578,622.73,560.75,566.78Z"/></g><ellipse class="af717a64-9e67-4675-9220-1a000aa1bd2a" cx="631.88" cy="578.32" rx="18.22" ry="19.13"/><path class="fd99143f-4198-41b9-98f8-66132060ba0d" d="M631.88,425.88c-6.36,0-11.51,5.41-11.51,12.09V566.91c0,6.68,5.15,12.09,11.51,12.09s11.51-5.41,11.51-12.09V438C643.39,431.29,638.24,425.88,631.88,425.88Z"/><path class="a5bf1a9d-132d-426c-abfb-0d2d03af0942" d="M634.85,576.51,428.6,515.87a7.31,7.31,0,0,0-8.92,4.51,6.51,6.51,0,0,0,4.24,8.52l206.25,60.63a7.32,7.32,0,0,0,8.93-4.5A6.51,6.51,0,0,0,634.85,576.51Z"/><path class="b009abe5-24d3-45bb-bcdf-3522919c9d7f" d="M1834.17,1696.07c66.38-70.88-117.39-337.14-215.75-453.81-85.92-101.93-174.24-206.69-282.7-193.43-95.22,11.65-187.87,112.07-193.42,208.31C1127.36,1516,1739.8,1796.82,1834.17,1696.07Z"/><path class="bcc0b237-026a-4749-892c-a8e4768ba2af" d="M646.45,1107.28a1780.66,1780.66,0,0,1,381.39-63.69c229.15-12.95,343.74-19.43,424.93,35.14,187.53,126,42.35,416.94,119.11,1138.07,11,103,13.42,206.69,21.36,309.95,13.14,171,16.14,180.25,4.24,197.57-74.6,108.64-352.91-55.22-760.84,9.55-228.24,36.24-331.76,119.74-394.29,59.52-72.93-70.23-10.37-259.14,43.47-421.75,61.81-186.66,100-189.06,135.07-329.64,36.68-146.93,14.5-222.58,8.78-454.29C626.94,1476.85,627.52,1311.85,646.45,1107.28Z"/><g class="b25956b4-26af-4754-8ebb-d658370fe9cf"><path class="a215ec2b-bb73-49c8-adab-f3dcdf290dea" d="M1201.17,2461.09c-106.62-8.34-175.78,51.94-267.82,5-126.2-64.42-166.75-264.84-158.71-406.69,12.22-215.53,135.29-272.34,114.08-411.65-11.48-75.34-65.27-175.37-258.4-277.56-2.57,86-2.08,159.32-.65,217.56,5.72,231.71,27.9,307.36-8.78,454.29-35.08,140.58-73.26,143-135.07,329.64-53.84,162.61-116.4,351.52-43.47,421.75,62.53,60.22,166-23.28,394.29-59.52,351.49-55.81,606.61,58,718.24,21.08C1420,2532.05,1297.65,2468.64,1201.17,2461.09Z"/></g><path class="a853df89-7971-4306-92ff-a0362484c502" d="M791.89,1122.08c-76.15-62.57-229.26,8.25-270.19,27.18C293.46,1254.84,88.53,1539.33,139.31,1840c7.61,45.09,42.92,256,221.51,358.18,161.14,92.21,378.73,68.5,553.06-62.1l71.48-63.42,70.32-76a564.44,564.44,0,0,0-187.37-103.23C752.39,1856,668,1923.12,614.21,1872.09c-37.11-35.21-37.2-97.41-28-135.11,18.47-76,85.45-97.34,141.35-151.27C858.86,1459,883.06,1197,791.89,1122.08Z"/><polygon class="b2a7a594-a0f2-4452-8db4-c4daf2dcc139" points="1886.19 2103.58 865.53 2088.34 1136.94 2219.32 1888.8 2170.12 1886.19 2103.58"/><path class="aa7c7270-6a47-4a74-a8f4-7ed22aff5cc5" d="M829.51,2115.46h0a45.44,45.44,0,0,0,29.91,42.69L1185.55,2286l1.48-88.64-321.5-109A28.22,28.22,0,0,0,829.51,2115.46Z"/><path class="f1eb9705-80c5-42c4-a070-a83f79d22f61" d="M986.68,2055.07c-6.27-1.4,30.51-74.68,59.39-66.23s170.09,90.3,182.93,124l12.83,33.7s-61.6,4.82-99.8-8S1037.61,2066.43,986.68,2055.07Z"/><path class="a326e97b-8a54-4a73-a3bf-49fd5ea37a7b" d="M1279.51,1080.32c-5.14-27.54-96.38-12.76-123.57-62.59-18.92-34.66,2.29-83.86,27.35-124.61-24.28-45.49-114.07-54.41-138.35-99.9.58,67.94-7,121.82-14.17,158.71-8.22,42.28-14.14,53.2-21.69,62.07-11.37,13.34-28.6,24.52-126,48.67-53,13.13-59.79,12.77-61,18-5.71,25.65,138.75,113,288,92C1201.5,1159.8,1284.61,1107.69,1279.51,1080.32Z"/><path class="fadabdc6-020a-4941-b718-3c33cdd03df3" d="M1222,773.24c44.93-36.25,75.74-110.06,54.55-143.62-29.11-46.13-151.67-8.68-213.55,10.23-62.08,19-82.38,37.25-91,58.27-8.79,21.47-6.49,49.3,1.09,70,4.13,11.29,12.28,25.37,30.46,52.29,16.13,23.88,15,23.06,20,30,11.89,16.68,34.89,44.8,77.27,77.61a259.3,259.3,0,0,1,13-43.2c2.5-6.25,12.6-30.68,28.38-51.16C1169.28,798.52,1194.69,795.24,1222,773.24Z"/><path class="b8d3efec-8fe5-47ee-b401-f9b104b0a6b3" d="M1046.5,895.64s43.51,66.69,125.83,58.8c73.71-7.08,79.45-173,31.2-206.73-16.09-11.24-47.76-15.14-73.17-7.18-15,4.71-19.94,11.16-44.61,18.37-22.75,6.65-29.32,4.31-36.06,10.35-8.44,7.55-14.23,25.62,1.71,73.59-14.52-13.83-31.61-18.79-43.41-12.77a25.21,25.21,0,0,0-9.55,9.89C988.7,859.19,1006.71,882.82,1046.5,895.64Z"/><path class="a16cb354-72b5-4e3b-9c67-8031430676a1" d="M1134.41,1169c-5.74,13-12.2,26.4-19.46,40.17q-4.74,9-9.57,17.48l-39.52,5.46-25.28-57.6a250,250,0,0,0,93.83-5.51Z"/><path class="f5704478-93fa-41ec-81f6-655927fa4b29" d="M1105,1223s45.32,443.56,184.88,512.85c-3.37,14.26,1.68,129.75,1.68,129.75s-129.74-37.24-137.07-34.57-159.69-242.61-88.62-598.9Z"/><path class="a4608c4e-df32-43e7-a913-acaaa21e277d" d="M1214.11,1575.45l-71.94,655.05c-2.49,22.6,29.16,56.27,51.87,55.2l1055.41-64.79a37,37,0,0,0,34.72-30.7l132.47-632.66c4-23-37.44-46.81-60.79-46.15l-1106,31.09A37,37,0,0,0,1214.11,1575.45Z"/><path class="ac03d0d6-ca4e-48b0-8d83-08bc90c7d604" d="M1238.23,1594.55l-71.94,655.05a37,37,0,0,0,38.53,41L2273.57,2240a37,37,0,0,0,34.72-30.7l109.19-635.56A37,37,0,0,0,2380,1530.5l-1106,31.1A37,37,0,0,0,1238.23,1594.55Z"/><path class="bf03c7c5-0de0-4bb5-bdd8-de88ac1a4e8d" d="M1865.81,2086.51c-93.33-39.55-60.39-115-170.59-209-145.37-124-293.55-70.22-345.43-166.32-16.15-29.93-23.87-76.5,4.27-151.88L1274,1561.6a37,37,0,0,0-35.74,33l-71.94,655.05a37,37,0,0,0,38.53,41L2273.57,2240a37,37,0,0,0,34.72-30.7l15.07-87.7c-32.43-18-71.18-34.45-116.39-43.63C2050.17,2046.18,1973.24,2132.05,1865.81,2086.51Z"/><path class="e13b071b-646a-4e10-857c-c8fb738ce431" d="M2326.17,2134.62c-22-.28-72.76,1.2-100.15,19.45-35.58,23.7-81.14,66.22-40.68,85.26,12.93,7.94,26.52,18.89,42.7,16.9,6.55-.81,13.33-3.64,19.61-5.62,5.06-1.6,10.17-2.84,15.35-4,10.22-2.25,20.49-4.57,30.61-7.22,2.87-.75,6.25-1.4,8.88-2.85,5.41-3,24.14-66.48,31.35-91.56A8.09,8.09,0,0,0,2326.17,2134.62Z"/><circle class="a3867e5d-7f33-42cc-9e7e-458b870fee09" cx="1666.89" cy="1034.62" r="242.72" transform="translate(-243.37 1481.7) rotate(-45)"/><circle class="f25c014f-dcbe-4396-ba05-5e3cd9200649" cx="1666.89" cy="1034.62" r="215.61" transform="translate(-243.37 1481.7) rotate(-45)"/><path class="a3867e5d-7f33-42cc-9e7e-458b870fee09" d="M1672.52,922.09c-81.63,0-147.81,50.38-147.81,112.53,0,21.37,7.83,41.36,21.42,58.38l-14.26,37.9a4.92,4.92,0,0,0,5.5,6.56c12.77-2.38,37-6.84,52.55-9.5,23.58,12.12,52,19.2,82.6,19.2,81.63,0,147.8-50.39,147.8-112.54S1754.15,922.09,1672.52,922.09Zm2.22,152.07h-94.57c-3.13,0-5.67-2-5.67-5.13s2.54-5.13,5.67-5.13h94.57c3.14,0,5.68,2,5.68,5.13S1677.88,1074.16,1674.74,1074.16Zm85.12-34.2H1580.17c-3.13,0-5.67-2-5.67-5.13s2.54-5.13,5.67-5.13h179.69c3.13,0,5.67,2,5.67,5.13S1763,1040,1759.86,1040Zm0-30.78H1580.17c-3.13,0-5.67-3.7-5.67-6.84s2.54-6.84,5.67-6.84h179.69c3.13,0,5.67,3.71,5.67,6.84S1763,1009.18,1759.86,1009.18Z"/></g></g></svg>